<mxfile host="Electron" modified="2023-04-22T15:02:15.403Z" agent="Mozilla/5.0 (Macintosh; Intel Mac OS X 10_15_7) AppleWebKit/537.36 (KHTML, like Gecko) draw.io/21.1.2 Chrome/106.0.5249.199 Electron/21.4.3 Safari/537.36" etag="-XaxgluhfkoaTKCa51qF" version="21.1.2" type="device">
  <diagram name="Page-1" id="2JNTKNwQZTTbzEDWgIsn">
    <mxGraphModel dx="954" dy="727" grid="1" gridSize="10" guides="1" tooltips="1" connect="1" arrows="1" fold="1" page="1" pageScale="1" pageWidth="1100" pageHeight="850" math="0" shadow="0">
      <root>
        <mxCell id="0" />
        <mxCell id="1" parent="0" />
        <mxCell id="hrWMg6iZv6XfxVeSmvvf-9" value="0" style="swimlane;fontStyle=0;childLayout=stackLayout;horizontal=1;startSize=26;fillColor=none;horizontalStack=0;resizeParent=1;resizeParentMax=0;resizeLast=0;collapsible=1;marginBottom=0;html=1;rounded=1;align=center;verticalAlign=middle;" parent="1" vertex="1">
          <mxGeometry x="370" y="207" width="250" height="146" as="geometry" />
        </mxCell>
        <mxCell id="hrWMg6iZv6XfxVeSmvvf-16" value="&lt;h2 style=&quot;&quot;&gt;&lt;span style=&quot;background-color: initial;&quot;&gt;Online&lt;br&gt;&lt;/span&gt;&lt;span style=&quot;background-color: initial;&quot;&gt;&amp;nbsp;Taxi Sharing&lt;br&gt;&lt;/span&gt;&lt;span style=&quot;background-color: initial;&quot;&gt;System&lt;/span&gt;&lt;br&gt;&lt;/h2&gt;&lt;div style=&quot;&quot;&gt;&lt;br&gt;&lt;/div&gt;" style="text;html=1;align=center;verticalAlign=middle;resizable=0;points=[];autosize=1;strokeColor=none;fillColor=none;" parent="hrWMg6iZv6XfxVeSmvvf-9" vertex="1">
          <mxGeometry y="26" width="250" height="120" as="geometry" />
        </mxCell>
        <mxCell id="10dsfQc52JVnm2fvTz3S-1" value="&lt;h3&gt;Passenger&lt;/h3&gt;" style="whiteSpace=wrap;html=1;align=center;" vertex="1" parent="1">
          <mxGeometry x="10" y="210" width="160" height="140" as="geometry" />
        </mxCell>
        <mxCell id="10dsfQc52JVnm2fvTz3S-2" value="&lt;h3&gt;Driver&lt;/h3&gt;" style="whiteSpace=wrap;html=1;align=center;" vertex="1" parent="1">
          <mxGeometry x="913" y="210" width="173" height="140" as="geometry" />
        </mxCell>
        <mxCell id="10dsfQc52JVnm2fvTz3S-3" value="&lt;h3&gt;Administrator&lt;/h3&gt;&lt;span style=&quot;font-size: medium; text-align: start;&quot;&gt;&lt;/span&gt;" style="whiteSpace=wrap;html=1;align=center;" vertex="1" parent="1">
          <mxGeometry x="450" y="570" width="150" height="70" as="geometry" />
        </mxCell>
        <mxCell id="10dsfQc52JVnm2fvTz3S-4" value="" style="endArrow=classic;html=1;rounded=0;exitX=0.25;exitY=0;exitDx=0;exitDy=0;entryX=0.5;entryY=0;entryDx=0;entryDy=0;" edge="1" parent="1" source="10dsfQc52JVnm2fvTz3S-1" target="hrWMg6iZv6XfxVeSmvvf-9">
          <mxGeometry relative="1" as="geometry">
            <mxPoint x="50" y="204" as="sourcePoint" />
            <mxPoint x="495" y="201" as="targetPoint" />
            <Array as="points">
              <mxPoint x="50" y="104" />
              <mxPoint x="260" y="104" />
              <mxPoint x="495" y="104" />
            </Array>
          </mxGeometry>
        </mxCell>
        <mxCell id="10dsfQc52JVnm2fvTz3S-12" value="Account registration information" style="text;html=1;align=center;verticalAlign=middle;resizable=0;points=[];autosize=1;strokeColor=none;fillColor=none;rotation=0;fontSize=11;" vertex="1" parent="1">
          <mxGeometry x="188" y="78" width="180" height="30" as="geometry" />
        </mxCell>
        <mxCell id="10dsfQc52JVnm2fvTz3S-13" value="" style="endArrow=classic;html=1;rounded=0;entryX=0.438;entryY=0.005;entryDx=0;entryDy=0;entryPerimeter=0;exitX=0.437;exitY=0.002;exitDx=0;exitDy=0;exitPerimeter=0;" edge="1" parent="1" source="hrWMg6iZv6XfxVeSmvvf-9" target="10dsfQc52JVnm2fvTz3S-1">
          <mxGeometry width="50" height="50" relative="1" as="geometry">
            <mxPoint x="478" y="204" as="sourcePoint" />
            <mxPoint x="80" y="204" as="targetPoint" />
            <Array as="points">
              <mxPoint x="480" y="120" />
              <mxPoint x="80" y="120" />
            </Array>
          </mxGeometry>
        </mxCell>
        <mxCell id="10dsfQc52JVnm2fvTz3S-14" value="Account registration confirmation" style="text;html=1;align=center;verticalAlign=middle;resizable=0;points=[];autosize=1;strokeColor=none;fillColor=none;rotation=0;fontSize=11;" vertex="1" parent="1">
          <mxGeometry x="191" y="100" width="180" height="30" as="geometry" />
        </mxCell>
        <mxCell id="10dsfQc52JVnm2fvTz3S-15" value="" style="endArrow=classic;html=1;rounded=0;entryX=0.357;entryY=-0.009;entryDx=0;entryDy=0;entryPerimeter=0;" edge="1" parent="1" target="hrWMg6iZv6XfxVeSmvvf-9">
          <mxGeometry width="50" height="50" relative="1" as="geometry">
            <mxPoint x="100" y="210" as="sourcePoint" />
            <mxPoint x="560" y="340" as="targetPoint" />
            <Array as="points">
              <mxPoint x="100" y="140" />
              <mxPoint x="460" y="140" />
            </Array>
          </mxGeometry>
        </mxCell>
        <mxCell id="10dsfQc52JVnm2fvTz3S-16" value="Payment Information" style="text;align=center;verticalAlign=middle;resizable=0;points=[];autosize=1;strokeColor=none;fillColor=none;rotation=0;fontSize=11;html=1;labelBorderColor=none;labelBackgroundColor=none;" vertex="1" parent="1">
          <mxGeometry x="219" y="118" width="120" height="30" as="geometry" />
        </mxCell>
        <mxCell id="10dsfQc52JVnm2fvTz3S-17" value="" style="endArrow=classic;html=1;rounded=0;exitX=1;exitY=0;exitDx=0;exitDy=0;" edge="1" parent="1" source="10dsfQc52JVnm2fvTz3S-1">
          <mxGeometry width="50" height="50" relative="1" as="geometry">
            <mxPoint x="160" y="210" as="sourcePoint" />
            <mxPoint x="380" y="210" as="targetPoint" />
            <Array as="points" />
          </mxGeometry>
        </mxCell>
        <mxCell id="10dsfQc52JVnm2fvTz3S-18" value="Ride search" style="text;html=1;align=center;verticalAlign=middle;resizable=0;points=[];autosize=1;strokeColor=none;fillColor=none;rotation=0;fontSize=11;" vertex="1" parent="1">
          <mxGeometry x="225" y="185" width="80" height="30" as="geometry" />
        </mxCell>
        <mxCell id="10dsfQc52JVnm2fvTz3S-19" value="" style="endArrow=classic;html=1;rounded=0;entryX=1;entryY=0;entryDx=0;entryDy=0;" edge="1" parent="1">
          <mxGeometry width="50" height="50" relative="1" as="geometry">
            <mxPoint x="370" y="230" as="sourcePoint" />
            <mxPoint x="170" y="230" as="targetPoint" />
          </mxGeometry>
        </mxCell>
        <mxCell id="10dsfQc52JVnm2fvTz3S-27" value="Availability of drivers" style="text;html=1;align=center;verticalAlign=middle;resizable=0;points=[];autosize=1;strokeColor=none;fillColor=none;rotation=0;fontSize=11;" vertex="1" parent="1">
          <mxGeometry x="210" y="207" width="120" height="30" as="geometry" />
        </mxCell>
        <mxCell id="10dsfQc52JVnm2fvTz3S-28" value="" style="endArrow=classic;html=1;rounded=0;entryX=0.003;entryY=0.128;entryDx=0;entryDy=0;entryPerimeter=0;" edge="1" parent="1">
          <mxGeometry width="50" height="50" relative="1" as="geometry">
            <mxPoint x="170" y="248" as="sourcePoint" />
            <mxPoint x="370.7500000000002" y="247.688" as="targetPoint" />
          </mxGeometry>
        </mxCell>
        <mxCell id="10dsfQc52JVnm2fvTz3S-29" value="Ride request&amp;nbsp; &amp;nbsp;" style="text;html=1;align=center;verticalAlign=middle;resizable=0;points=[];autosize=1;strokeColor=none;fillColor=none;rotation=0;fontSize=11;" vertex="1" parent="1">
          <mxGeometry x="219" y="224" width="100" height="30" as="geometry" />
        </mxCell>
        <mxCell id="10dsfQc52JVnm2fvTz3S-30" value="" style="endArrow=classic;html=1;rounded=0;" edge="1" parent="1">
          <mxGeometry width="50" height="50" relative="1" as="geometry">
            <mxPoint x="370" y="263" as="sourcePoint" />
            <mxPoint x="170" y="263" as="targetPoint" />
          </mxGeometry>
        </mxCell>
        <mxCell id="10dsfQc52JVnm2fvTz3S-31" value="Ride confirmation" style="text;html=1;align=center;verticalAlign=middle;resizable=0;points=[];autosize=1;strokeColor=none;fillColor=none;rotation=0;fontSize=11;" vertex="1" parent="1">
          <mxGeometry x="215" y="241" width="110" height="30" as="geometry" />
        </mxCell>
        <mxCell id="10dsfQc52JVnm2fvTz3S-33" value="" style="endArrow=classic;html=1;rounded=0;entryX=0;entryY=0.224;entryDx=0;entryDy=0;entryPerimeter=0;exitX=1;exitY=0.356;exitDx=0;exitDy=0;exitPerimeter=0;" edge="1" parent="1">
          <mxGeometry width="50" height="50" relative="1" as="geometry">
            <mxPoint x="170" y="296.84000000000003" as="sourcePoint" />
            <mxPoint x="370" y="296.8800000000001" as="targetPoint" />
          </mxGeometry>
        </mxCell>
        <mxCell id="10dsfQc52JVnm2fvTz3S-34" value="Payment confirmation" style="text;html=1;align=center;verticalAlign=middle;resizable=0;points=[];autosize=1;strokeColor=none;fillColor=none;rotation=0;fontSize=11;" vertex="1" parent="1">
          <mxGeometry x="200" y="274" width="130" height="30" as="geometry" />
        </mxCell>
        <mxCell id="10dsfQc52JVnm2fvTz3S-35" value="Payment authentification" style="text;html=1;align=center;verticalAlign=middle;resizable=0;points=[];autosize=1;strokeColor=none;fillColor=none;rotation=0;fontSize=11;" vertex="1" parent="1">
          <mxGeometry x="200" y="291" width="140" height="30" as="geometry" />
        </mxCell>
        <mxCell id="10dsfQc52JVnm2fvTz3S-36" value="" style="endArrow=classic;html=1;rounded=0;entryX=1;entryY=0.5;entryDx=0;entryDy=0;" edge="1" parent="1">
          <mxGeometry width="50" height="50" relative="1" as="geometry">
            <mxPoint x="369" y="314" as="sourcePoint" />
            <mxPoint x="170" y="313.9999999999999" as="targetPoint" />
          </mxGeometry>
        </mxCell>
        <mxCell id="10dsfQc52JVnm2fvTz3S-37" value="" style="endArrow=classic;html=1;rounded=0;exitX=1;exitY=0.63;exitDx=0;exitDy=0;entryX=-0.01;entryY=0.543;entryDx=0;entryDy=0;entryPerimeter=0;exitPerimeter=0;" edge="1" parent="1">
          <mxGeometry width="50" height="50" relative="1" as="geometry">
            <mxPoint x="170" y="332.20000000000005" as="sourcePoint" />
            <mxPoint x="367.5" y="332.15999999999997" as="targetPoint" />
            <Array as="points" />
          </mxGeometry>
        </mxCell>
        <mxCell id="10dsfQc52JVnm2fvTz3S-38" value="Feedback for driver" style="text;html=1;align=center;verticalAlign=middle;resizable=0;points=[];autosize=1;strokeColor=none;fillColor=none;fontSize=11;" vertex="1" parent="1">
          <mxGeometry x="205" y="308" width="120" height="30" as="geometry" />
        </mxCell>
        <mxCell id="10dsfQc52JVnm2fvTz3S-40" value="" style="endArrow=classic;html=1;rounded=0;entryX=0.003;entryY=0.71;entryDx=0;entryDy=0;entryPerimeter=0;" edge="1" parent="1">
          <mxGeometry width="50" height="50" relative="1" as="geometry">
            <mxPoint x="170" y="349" as="sourcePoint" />
            <mxPoint x="370.7500000000002" y="349.20000000000005" as="targetPoint" />
            <Array as="points" />
          </mxGeometry>
        </mxCell>
        <mxCell id="10dsfQc52JVnm2fvTz3S-41" value="Ride cancellation request&amp;nbsp;" style="text;html=1;align=center;verticalAlign=middle;resizable=0;points=[];autosize=1;strokeColor=none;fillColor=none;rotation=0;fontSize=11;" vertex="1" parent="1">
          <mxGeometry x="195" y="326" width="150" height="30" as="geometry" />
        </mxCell>
        <mxCell id="10dsfQc52JVnm2fvTz3S-44" value="" style="endArrow=classic;html=1;rounded=0;exitX=0.19;exitY=1.008;exitDx=0;exitDy=0;exitPerimeter=0;entryX=0.797;entryY=0.993;entryDx=0;entryDy=0;entryPerimeter=0;" edge="1" parent="1" source="hrWMg6iZv6XfxVeSmvvf-16" target="10dsfQc52JVnm2fvTz3S-1">
          <mxGeometry width="50" height="50" relative="1" as="geometry">
            <mxPoint x="370" y="400.7199999999999" as="sourcePoint" />
            <mxPoint x="170" y="400" as="targetPoint" />
            <Array as="points">
              <mxPoint x="418" y="380" />
              <mxPoint x="280" y="380" />
              <mxPoint x="138" y="380" />
            </Array>
          </mxGeometry>
        </mxCell>
        <mxCell id="10dsfQc52JVnm2fvTz3S-45" value="Ride cancellation confirmation" style="text;html=1;align=center;verticalAlign=middle;resizable=0;points=[];autosize=1;strokeColor=none;fillColor=none;rotation=0;fontSize=11;" vertex="1" parent="1">
          <mxGeometry x="194" y="356" width="170" height="30" as="geometry" />
        </mxCell>
        <mxCell id="10dsfQc52JVnm2fvTz3S-46" value="" style="endArrow=classic;html=1;rounded=0;exitX=-0.007;exitY=0.203;exitDx=0;exitDy=0;exitPerimeter=0;" edge="1" parent="1">
          <mxGeometry width="50" height="50" relative="1" as="geometry">
            <mxPoint x="368.2500000000002" y="279.36" as="sourcePoint" />
            <mxPoint x="171" y="281" as="targetPoint" />
            <Array as="points" />
          </mxGeometry>
        </mxCell>
        <mxCell id="10dsfQc52JVnm2fvTz3S-47" value="Ride status" style="text;html=1;align=center;verticalAlign=middle;resizable=0;points=[];autosize=1;strokeColor=none;fillColor=none;rotation=0;fontSize=11;" vertex="1" parent="1">
          <mxGeometry x="226" y="258" width="80" height="30" as="geometry" />
        </mxCell>
        <mxCell id="10dsfQc52JVnm2fvTz3S-48" value="" style="endArrow=classic;html=1;rounded=0;entryX=0.283;entryY=-0.015;entryDx=0;entryDy=0;entryPerimeter=0;" edge="1" parent="1" target="hrWMg6iZv6XfxVeSmvvf-9">
          <mxGeometry width="50" height="50" relative="1" as="geometry">
            <mxPoint x="120" y="210" as="sourcePoint" />
            <mxPoint x="450" y="220" as="targetPoint" />
            <Array as="points">
              <mxPoint x="120" y="160" />
              <mxPoint x="440" y="160" />
            </Array>
          </mxGeometry>
        </mxCell>
        <mxCell id="10dsfQc52JVnm2fvTz3S-49" value="Location access confirmation" style="text;html=1;align=center;verticalAlign=middle;resizable=0;points=[];autosize=1;strokeColor=none;fillColor=none;rotation=0;fontSize=11;" vertex="1" parent="1">
          <mxGeometry x="188" y="140" width="170" height="30" as="geometry" />
        </mxCell>
        <mxCell id="10dsfQc52JVnm2fvTz3S-52" value="" style="endArrow=classic;html=1;rounded=0;exitX=0.2;exitY=-0.003;exitDx=0;exitDy=0;exitPerimeter=0;entryX=0.807;entryY=-0.001;entryDx=0;entryDy=0;entryPerimeter=0;" edge="1" parent="1" source="hrWMg6iZv6XfxVeSmvvf-9" target="10dsfQc52JVnm2fvTz3S-1">
          <mxGeometry width="50" height="50" relative="1" as="geometry">
            <mxPoint x="400" y="270" as="sourcePoint" />
            <mxPoint x="450" y="220" as="targetPoint" />
            <Array as="points">
              <mxPoint x="420" y="180" />
              <mxPoint x="139" y="180" />
            </Array>
          </mxGeometry>
        </mxCell>
        <mxCell id="10dsfQc52JVnm2fvTz3S-55" value="Location information" style="text;html=1;align=center;verticalAlign=middle;resizable=0;points=[];autosize=1;strokeColor=none;fillColor=none;rotation=0;fontSize=11;" vertex="1" parent="1">
          <mxGeometry x="221" y="159" width="120" height="30" as="geometry" />
        </mxCell>
        <mxCell id="10dsfQc52JVnm2fvTz3S-56" value="" style="endArrow=classic;html=1;rounded=0;" edge="1" parent="1">
          <mxGeometry width="50" height="50" relative="1" as="geometry">
            <mxPoint x="120" y="350" as="sourcePoint" />
            <mxPoint x="440" y="350" as="targetPoint" />
            <Array as="points">
              <mxPoint x="120" y="400" />
              <mxPoint x="440" y="400" />
            </Array>
          </mxGeometry>
        </mxCell>
        <mxCell id="10dsfQc52JVnm2fvTz3S-57" value="Account management" style="text;html=1;align=center;verticalAlign=middle;resizable=0;points=[];autosize=1;strokeColor=none;fillColor=none;rotation=0;fontSize=11;" vertex="1" parent="1">
          <mxGeometry x="211" y="380" width="130" height="30" as="geometry" />
        </mxCell>
        <mxCell id="10dsfQc52JVnm2fvTz3S-58" value="" style="endArrow=classic;html=1;rounded=0;exitX=0.363;exitY=1.008;exitDx=0;exitDy=0;exitPerimeter=0;" edge="1" parent="1" source="hrWMg6iZv6XfxVeSmvvf-16">
          <mxGeometry width="50" height="50" relative="1" as="geometry">
            <mxPoint x="390" y="471.6666666666667" as="sourcePoint" />
            <mxPoint x="100" y="350" as="targetPoint" />
            <Array as="points">
              <mxPoint x="460" y="420" />
              <mxPoint x="100" y="420" />
            </Array>
          </mxGeometry>
        </mxCell>
        <mxCell id="10dsfQc52JVnm2fvTz3S-59" value="Modification confirmation" style="text;html=1;align=center;verticalAlign=middle;resizable=0;points=[];autosize=1;strokeColor=none;fillColor=none;rotation=0;fontSize=11;" vertex="1" parent="1">
          <mxGeometry x="200" y="397" width="150" height="30" as="geometry" />
        </mxCell>
        <mxCell id="10dsfQc52JVnm2fvTz3S-60" value="" style="endArrow=classic;html=1;rounded=0;entryX=0.44;entryY=1.008;entryDx=0;entryDy=0;entryPerimeter=0;" edge="1" parent="1" target="hrWMg6iZv6XfxVeSmvvf-16">
          <mxGeometry width="50" height="50" relative="1" as="geometry">
            <mxPoint x="80" y="350" as="sourcePoint" />
            <mxPoint x="450" y="360" as="targetPoint" />
            <Array as="points">
              <mxPoint x="80" y="440" />
              <mxPoint x="280" y="440" />
              <mxPoint x="480" y="440" />
            </Array>
          </mxGeometry>
        </mxCell>
        <mxCell id="10dsfQc52JVnm2fvTz3S-61" value="Details of report" style="text;html=1;align=center;verticalAlign=middle;resizable=0;points=[];autosize=1;strokeColor=none;fillColor=none;rotation=0;fontSize=11;" vertex="1" parent="1">
          <mxGeometry x="228" y="418" width="100" height="30" as="geometry" />
        </mxCell>
        <mxCell id="10dsfQc52JVnm2fvTz3S-62" value="" style="endArrow=classic;html=1;rounded=0;" edge="1" parent="1">
          <mxGeometry width="50" height="50" relative="1" as="geometry">
            <mxPoint x="503" y="350" as="sourcePoint" />
            <mxPoint x="60" y="350" as="targetPoint" />
            <Array as="points">
              <mxPoint x="503" y="460" />
              <mxPoint x="280" y="460" />
              <mxPoint x="60" y="460" />
            </Array>
          </mxGeometry>
        </mxCell>
        <mxCell id="10dsfQc52JVnm2fvTz3S-63" value="Report sumbission" style="text;html=1;align=center;verticalAlign=middle;resizable=0;points=[];autosize=1;strokeColor=none;fillColor=none;rotation=0;fontSize=11;" vertex="1" parent="1">
          <mxGeometry x="223" y="438" width="110" height="30" as="geometry" />
        </mxCell>
        <mxCell id="10dsfQc52JVnm2fvTz3S-64" value="" style="endArrow=classic;html=1;rounded=0;entryX=0.464;entryY=-0.007;entryDx=0;entryDy=0;exitX=0.602;exitY=1.01;exitDx=0;exitDy=0;exitPerimeter=0;entryPerimeter=0;" edge="1" parent="1" source="hrWMg6iZv6XfxVeSmvvf-16" target="10dsfQc52JVnm2fvTz3S-3">
          <mxGeometry width="50" height="50" relative="1" as="geometry">
            <mxPoint x="510" y="360" as="sourcePoint" />
            <mxPoint x="530" y="180" as="targetPoint" />
          </mxGeometry>
        </mxCell>
        <mxCell id="10dsfQc52JVnm2fvTz3S-65" value="List of flagged accounts" style="text;html=1;align=center;verticalAlign=middle;resizable=0;points=[];autosize=1;strokeColor=none;fillColor=none;horizontal=0;" vertex="1" parent="1">
          <mxGeometry x="435" y="460" width="150" height="30" as="geometry" />
        </mxCell>
        <mxCell id="10dsfQc52JVnm2fvTz3S-66" value="" style="endArrow=classic;html=1;rounded=0;exitX=0.594;exitY=-0.001;exitDx=0;exitDy=0;entryX=0.673;entryY=0.999;entryDx=0;entryDy=0;entryPerimeter=0;exitPerimeter=0;" edge="1" parent="1" source="10dsfQc52JVnm2fvTz3S-3" target="hrWMg6iZv6XfxVeSmvvf-16">
          <mxGeometry width="50" height="50" relative="1" as="geometry">
            <mxPoint x="525" y="590" as="sourcePoint" />
            <mxPoint x="530.7500000000002" y="353.96000000000004" as="targetPoint" />
          </mxGeometry>
        </mxCell>
        <mxCell id="10dsfQc52JVnm2fvTz3S-68" value="Outcome of report" style="text;html=1;align=center;verticalAlign=middle;resizable=0;points=[];autosize=1;strokeColor=none;fillColor=none;rotation=0;fontSize=11;horizontal=0;" vertex="1" parent="1">
          <mxGeometry x="490" y="460" width="110" height="30" as="geometry" />
        </mxCell>
        <mxCell id="10dsfQc52JVnm2fvTz3S-82" value="" style="endArrow=classic;html=1;rounded=0;entryX=0.58;entryY=-0.007;entryDx=0;entryDy=0;entryPerimeter=0;exitX=0.5;exitY=0;exitDx=0;exitDy=0;" edge="1" parent="1" source="10dsfQc52JVnm2fvTz3S-2" target="hrWMg6iZv6XfxVeSmvvf-9">
          <mxGeometry width="50" height="50" relative="1" as="geometry">
            <mxPoint x="870" y="250" as="sourcePoint" />
            <mxPoint x="620" y="220" as="targetPoint" />
            <Array as="points">
              <mxPoint x="1000" y="100" />
              <mxPoint x="515" y="100" />
            </Array>
          </mxGeometry>
        </mxCell>
        <mxCell id="10dsfQc52JVnm2fvTz3S-83" value="" style="endArrow=classic;html=1;rounded=0;entryX=0.374;entryY=-0.002;entryDx=0;entryDy=0;entryPerimeter=0;exitX=0.676;exitY=-0.004;exitDx=0;exitDy=0;exitPerimeter=0;" edge="1" parent="1" source="hrWMg6iZv6XfxVeSmvvf-9" target="10dsfQc52JVnm2fvTz3S-2">
          <mxGeometry width="50" height="50" relative="1" as="geometry">
            <mxPoint x="540" y="200" as="sourcePoint" />
            <mxPoint x="620" y="220" as="targetPoint" />
            <Array as="points">
              <mxPoint x="540" y="120" />
              <mxPoint x="760" y="120" />
              <mxPoint x="978" y="120" />
            </Array>
          </mxGeometry>
        </mxCell>
        <mxCell id="10dsfQc52JVnm2fvTz3S-84" value="" style="endArrow=classic;html=1;rounded=0;entryX=0.75;entryY=0;entryDx=0;entryDy=0;exitX=0.271;exitY=-0.006;exitDx=0;exitDy=0;exitPerimeter=0;" edge="1" parent="1" source="10dsfQc52JVnm2fvTz3S-2" target="hrWMg6iZv6XfxVeSmvvf-9">
          <mxGeometry width="50" height="50" relative="1" as="geometry">
            <mxPoint x="957" y="189" as="sourcePoint" />
            <mxPoint x="558.5" y="189" as="targetPoint" />
            <Array as="points">
              <mxPoint x="961" y="142" />
              <mxPoint x="761" y="142" />
              <mxPoint x="559" y="142" />
            </Array>
          </mxGeometry>
        </mxCell>
        <mxCell id="10dsfQc52JVnm2fvTz3S-87" value="" style="endArrow=classic;html=1;rounded=0;entryX=0.128;entryY=-0.002;entryDx=0;entryDy=0;entryPerimeter=0;exitX=0.841;exitY=0.001;exitDx=0;exitDy=0;exitPerimeter=0;" edge="1" parent="1" source="hrWMg6iZv6XfxVeSmvvf-9" target="10dsfQc52JVnm2fvTz3S-2">
          <mxGeometry width="50" height="50" relative="1" as="geometry">
            <mxPoint x="570" y="270" as="sourcePoint" />
            <mxPoint x="620" y="220" as="targetPoint" />
            <Array as="points">
              <mxPoint x="580" y="160" />
              <mxPoint x="760" y="160" />
              <mxPoint x="935" y="160" />
            </Array>
          </mxGeometry>
        </mxCell>
        <mxCell id="10dsfQc52JVnm2fvTz3S-91" value="Location information" style="text;html=1;align=center;verticalAlign=middle;resizable=0;points=[];autosize=1;strokeColor=none;fillColor=none;rotation=0;fontSize=11;" vertex="1" parent="1">
          <mxGeometry x="690" y="140" width="120" height="30" as="geometry" />
        </mxCell>
        <mxCell id="10dsfQc52JVnm2fvTz3S-92" value="Account registration information" style="text;html=1;align=center;verticalAlign=middle;resizable=0;points=[];autosize=1;strokeColor=none;fillColor=none;rotation=0;fontSize=11;" vertex="1" parent="1">
          <mxGeometry x="662" y="80" width="180" height="30" as="geometry" />
        </mxCell>
        <mxCell id="10dsfQc52JVnm2fvTz3S-93" value="Account registration confirmation" style="text;html=1;align=center;verticalAlign=middle;resizable=0;points=[];autosize=1;strokeColor=none;fillColor=none;rotation=0;fontSize=11;" vertex="1" parent="1">
          <mxGeometry x="663" y="98" width="180" height="30" as="geometry" />
        </mxCell>
        <mxCell id="10dsfQc52JVnm2fvTz3S-94" value="Location access confirmation" style="text;html=1;align=center;verticalAlign=middle;resizable=0;points=[];autosize=1;strokeColor=none;fillColor=none;rotation=0;fontSize=11;" vertex="1" parent="1">
          <mxGeometry x="666" y="117" width="170" height="30" as="geometry" />
        </mxCell>
        <mxCell id="10dsfQc52JVnm2fvTz3S-95" value="" style="endArrow=classic;html=1;rounded=0;exitX=0.914;exitY=-0.007;exitDx=0;exitDy=0;exitPerimeter=0;" edge="1" parent="1" source="hrWMg6iZv6XfxVeSmvvf-9">
          <mxGeometry width="50" height="50" relative="1" as="geometry">
            <mxPoint x="570" y="270" as="sourcePoint" />
            <mxPoint x="910" y="210" as="targetPoint" />
            <Array as="points">
              <mxPoint x="599" y="180" />
              <mxPoint x="760" y="180" />
              <mxPoint x="910" y="180" />
            </Array>
          </mxGeometry>
        </mxCell>
        <mxCell id="10dsfQc52JVnm2fvTz3S-97" value="Ride request notification" style="text;html=1;align=center;verticalAlign=middle;resizable=0;points=[];autosize=1;strokeColor=none;fillColor=none;rotation=0;fontSize=11;" vertex="1" parent="1">
          <mxGeometry x="682" y="158" width="140" height="30" as="geometry" />
        </mxCell>
        <mxCell id="10dsfQc52JVnm2fvTz3S-98" value="" style="endArrow=classic;html=1;rounded=0;" edge="1" parent="1">
          <mxGeometry width="50" height="50" relative="1" as="geometry">
            <mxPoint x="910" y="212" as="sourcePoint" />
            <mxPoint x="620" y="212" as="targetPoint" />
          </mxGeometry>
        </mxCell>
        <mxCell id="10dsfQc52JVnm2fvTz3S-99" value="Response for ride" style="text;html=1;align=center;verticalAlign=middle;resizable=0;points=[];autosize=1;strokeColor=none;fillColor=none;rotation=0;fontSize=11;" vertex="1" parent="1">
          <mxGeometry x="700" y="187" width="110" height="30" as="geometry" />
        </mxCell>
        <mxCell id="10dsfQc52JVnm2fvTz3S-101" value="" style="endArrow=classic;html=1;rounded=0;exitX=1.01;exitY=-0.017;exitDx=0;exitDy=0;exitPerimeter=0;" edge="1" parent="1">
          <mxGeometry width="50" height="50" relative="1" as="geometry">
            <mxPoint x="618.5" y="230.96000000000004" as="sourcePoint" />
            <mxPoint x="916" y="231" as="targetPoint" />
          </mxGeometry>
        </mxCell>
        <mxCell id="10dsfQc52JVnm2fvTz3S-103" value="Requested ride details" style="text;html=1;align=center;verticalAlign=middle;resizable=0;points=[];autosize=1;strokeColor=none;fillColor=none;rotation=0;fontSize=11;" vertex="1" parent="1">
          <mxGeometry x="690" y="207" width="130" height="30" as="geometry" />
        </mxCell>
        <mxCell id="10dsfQc52JVnm2fvTz3S-104" value="" style="endArrow=classic;html=1;rounded=0;" edge="1" parent="1">
          <mxGeometry width="50" height="50" relative="1" as="geometry">
            <mxPoint x="911" y="250" as="sourcePoint" />
            <mxPoint x="620" y="250" as="targetPoint" />
          </mxGeometry>
        </mxCell>
        <mxCell id="10dsfQc52JVnm2fvTz3S-105" value="Ride status updates" style="text;html=1;align=center;verticalAlign=middle;resizable=0;points=[];autosize=1;strokeColor=none;fillColor=none;rotation=0;fontSize=11;" vertex="1" parent="1">
          <mxGeometry x="695" y="226" width="120" height="30" as="geometry" />
        </mxCell>
        <mxCell id="10dsfQc52JVnm2fvTz3S-107" value="" style="endArrow=classic;html=1;rounded=0;exitX=0;exitY=0.5;exitDx=0;exitDy=0;entryX=1;entryY=0.379;entryDx=0;entryDy=0;entryPerimeter=0;" edge="1" parent="1">
          <mxGeometry width="50" height="50" relative="1" as="geometry">
            <mxPoint x="913" y="273" as="sourcePoint" />
            <mxPoint x="620" y="271.48" as="targetPoint" />
          </mxGeometry>
        </mxCell>
        <mxCell id="10dsfQc52JVnm2fvTz3S-108" value="Ride cancellation request" style="text;html=1;align=center;verticalAlign=middle;resizable=0;points=[];autosize=1;strokeColor=none;fillColor=none;rotation=0;fontSize=11;" vertex="1" parent="1">
          <mxGeometry x="679" y="247" width="150" height="30" as="geometry" />
        </mxCell>
        <mxCell id="10dsfQc52JVnm2fvTz3S-109" value="" style="endArrow=classic;html=1;rounded=0;entryX=0.005;entryY=0.596;entryDx=0;entryDy=0;entryPerimeter=0;exitX=1;exitY=0.494;exitDx=0;exitDy=0;exitPerimeter=0;" edge="1" parent="1" source="hrWMg6iZv6XfxVeSmvvf-16" target="10dsfQc52JVnm2fvTz3S-2">
          <mxGeometry width="50" height="50" relative="1" as="geometry">
            <mxPoint x="570" y="270" as="sourcePoint" />
            <mxPoint x="620" y="220" as="targetPoint" />
          </mxGeometry>
        </mxCell>
        <mxCell id="10dsfQc52JVnm2fvTz3S-110" value="Ride cancellation confirmation" style="text;html=1;align=center;verticalAlign=middle;resizable=0;points=[];autosize=1;strokeColor=none;fillColor=none;rotation=0;fontSize=11;" vertex="1" parent="1">
          <mxGeometry x="675" y="268" width="170" height="30" as="geometry" />
        </mxCell>
        <mxCell id="10dsfQc52JVnm2fvTz3S-111" value="" style="endArrow=classic;html=1;rounded=0;entryX=1.005;entryY=0.671;entryDx=0;entryDy=0;entryPerimeter=0;exitX=0;exitY=0.75;exitDx=0;exitDy=0;" edge="1" parent="1">
          <mxGeometry width="50" height="50" relative="1" as="geometry">
            <mxPoint x="913" y="313" as="sourcePoint" />
            <mxPoint x="621.25" y="311.52" as="targetPoint" />
          </mxGeometry>
        </mxCell>
        <mxCell id="10dsfQc52JVnm2fvTz3S-112" value="Account management" style="text;html=1;align=center;verticalAlign=middle;resizable=0;points=[];autosize=1;strokeColor=none;fillColor=none;rotation=0;fontSize=11;" vertex="1" parent="1">
          <mxGeometry x="700" y="288" width="130" height="30" as="geometry" />
        </mxCell>
        <mxCell id="10dsfQc52JVnm2fvTz3S-114" value="" style="endArrow=classic;html=1;rounded=0;exitX=1.01;exitY=0.827;exitDx=0;exitDy=0;exitPerimeter=0;" edge="1" parent="1">
          <mxGeometry width="50" height="50" relative="1" as="geometry">
            <mxPoint x="620.5" y="331.2399999999998" as="sourcePoint" />
            <mxPoint x="918" y="331" as="targetPoint" />
          </mxGeometry>
        </mxCell>
        <mxCell id="10dsfQc52JVnm2fvTz3S-116" value="Modification confirmation" style="text;html=1;align=center;verticalAlign=middle;resizable=0;points=[];autosize=1;strokeColor=none;fillColor=none;rotation=0;fontSize=11;" vertex="1" parent="1">
          <mxGeometry x="690" y="307" width="150" height="30" as="geometry" />
        </mxCell>
        <mxCell id="10dsfQc52JVnm2fvTz3S-118" value="" style="endArrow=classic;html=1;rounded=0;exitX=0;exitY=1;exitDx=0;exitDy=0;entryX=0.995;entryY=0.962;entryDx=0;entryDy=0;entryPerimeter=0;" edge="1" parent="1" source="10dsfQc52JVnm2fvTz3S-2" target="hrWMg6iZv6XfxVeSmvvf-16">
          <mxGeometry width="50" height="50" relative="1" as="geometry">
            <mxPoint x="890" y="350" as="sourcePoint" />
            <mxPoint x="600" y="220" as="targetPoint" />
          </mxGeometry>
        </mxCell>
        <mxCell id="10dsfQc52JVnm2fvTz3S-119" value="Feedback for passenger" style="text;html=1;align=center;verticalAlign=middle;resizable=0;points=[];autosize=1;strokeColor=none;fillColor=none;rotation=0;fontSize=11;" vertex="1" parent="1">
          <mxGeometry x="697" y="326" width="140" height="30" as="geometry" />
        </mxCell>
        <mxCell id="10dsfQc52JVnm2fvTz3S-120" value="" style="endArrow=classic;html=1;rounded=0;" edge="1" parent="1">
          <mxGeometry width="50" height="50" relative="1" as="geometry">
            <mxPoint x="940" y="351" as="sourcePoint" />
            <mxPoint x="600" y="351" as="targetPoint" />
            <Array as="points">
              <mxPoint x="940" y="390" />
              <mxPoint x="600" y="390" />
            </Array>
          </mxGeometry>
        </mxCell>
        <mxCell id="10dsfQc52JVnm2fvTz3S-121" value="Details of report" style="text;html=1;align=center;verticalAlign=middle;resizable=0;points=[];autosize=1;strokeColor=none;fillColor=none;rotation=0;fontSize=11;" vertex="1" parent="1">
          <mxGeometry x="710" y="362" width="100" height="30" as="geometry" />
        </mxCell>
        <mxCell id="10dsfQc52JVnm2fvTz3S-122" value="" style="endArrow=classic;html=1;rounded=0;" edge="1" parent="1">
          <mxGeometry width="50" height="50" relative="1" as="geometry">
            <mxPoint x="580" y="350" as="sourcePoint" />
            <mxPoint x="960" y="350" as="targetPoint" />
            <Array as="points">
              <mxPoint x="580" y="420" />
              <mxPoint x="760" y="420" />
              <mxPoint x="960" y="420" />
            </Array>
          </mxGeometry>
        </mxCell>
        <mxCell id="10dsfQc52JVnm2fvTz3S-123" value="Report sumbission" style="text;html=1;align=center;verticalAlign=middle;resizable=0;points=[];autosize=1;strokeColor=none;fillColor=none;rotation=0;fontSize=11;" vertex="1" parent="1">
          <mxGeometry x="705" y="392" width="110" height="30" as="geometry" />
        </mxCell>
      </root>
    </mxGraphModel>
  </diagram>
</mxfile>
